<svg width="192" height="75" viewBox="0 0 192 75" fill="none" xmlns="http://www.w3.org/2000/svg">
<rect width="192" height="31" rx="15.5" fill="#746FFF" fill-opacity="0.1"/>
<path d="M17.368 20V11.6H18.256V19.232H22.96V20H17.368ZM24.2544 20V13.7H25.1064V20H24.2544ZM24.6864 12.308C24.5104 12.308 24.3624 12.248 24.2424 12.128C24.1224 12.008 24.0624 11.864 24.0624 11.696C24.0624 11.528 24.1224 11.388 24.2424 11.276C24.3624 11.156 24.5104 11.096 24.6864 11.096C24.8624 11.096 25.0104 11.152 25.1304 11.264C25.2504 11.376 25.3104 11.516 25.3104 11.684C25.3104 11.86 25.2504 12.008 25.1304 12.128C25.0184 12.248 24.8704 12.308 24.6864 12.308ZM29.9851 20.06C29.3851 20.06 28.8451 19.924 28.3651 19.652C27.8931 19.38 27.5211 19.004 27.2491 18.524C26.9771 18.044 26.8411 17.484 26.8411 16.844C26.8411 16.212 26.9771 15.656 27.2491 15.176C27.5211 14.688 27.8931 14.312 28.3651 14.048C28.8451 13.776 29.3851 13.64 29.9851 13.64C30.5451 13.64 31.0411 13.764 31.4731 14.012C31.9131 14.26 32.2611 14.624 32.5171 15.104C32.7731 15.576 32.9011 16.156 32.9011 16.844C32.9011 17.532 32.7691 18.116 32.5051 18.596C32.2491 19.068 31.9011 19.432 31.4611 19.688C31.0291 19.936 30.5371 20.06 29.9851 20.06ZM30.0451 19.304C30.4931 19.304 30.8931 19.204 31.2451 19.004C31.6051 18.796 31.8851 18.508 32.0851 18.14C32.2931 17.764 32.3971 17.332 32.3971 16.844C32.3971 16.356 32.2931 15.928 32.0851 15.56C31.8851 15.192 31.6051 14.904 31.2451 14.696C30.8931 14.488 30.4931 14.384 30.0451 14.384C29.6051 14.384 29.2091 14.488 28.8571 14.696C28.5051 14.904 28.2251 15.192 28.0171 15.56C27.8091 15.928 27.7051 16.356 27.7051 16.844C27.7051 17.332 27.8091 17.764 28.0171 18.14C28.2251 18.508 28.5051 18.796 28.8571 19.004C29.2091 19.204 29.6051 19.304 30.0451 19.304ZM32.3851 22.328V18.128L32.5051 16.856L32.4211 15.596V13.7H33.2371V22.328H32.3851ZM38.2139 20.06C37.6779 20.06 37.2099 19.96 36.8099 19.76C36.4099 19.56 36.0979 19.26 35.8739 18.86C35.6579 18.46 35.5499 17.96 35.5499 17.36V13.7H36.4019V17.264C36.4019 17.936 36.5659 18.444 36.8939 18.788C37.2299 19.124 37.6979 19.292 38.2979 19.292C38.7379 19.292 39.1179 19.204 39.4379 19.028C39.7659 18.844 40.0139 18.58 40.1819 18.236C40.3579 17.892 40.4459 17.48 40.4459 17V13.7H41.2979V20H40.4819V18.272L40.6139 18.584C40.4139 19.048 40.1019 19.412 39.6779 19.676C39.2619 19.932 38.7739 20.06 38.2139 20.06ZM43.6724 20V13.7H44.5244V20H43.6724ZM44.1044 12.308C43.9284 12.308 43.7804 12.248 43.6604 12.128C43.5404 12.008 43.4804 11.864 43.4804 11.696C43.4804 11.528 43.5404 11.388 43.6604 11.276C43.7804 11.156 43.9284 11.096 44.1044 11.096C44.2804 11.096 44.4284 11.152 44.5484 11.264C44.6684 11.376 44.7284 11.516 44.7284 11.684C44.7284 11.86 44.6684 12.008 44.5484 12.128C44.4364 12.248 44.2884 12.308 44.1044 12.308ZM49.403 20.06C48.803 20.06 48.263 19.924 47.783 19.652C47.311 19.38 46.939 19.004 46.667 18.524C46.395 18.036 46.259 17.476 46.259 16.844C46.259 16.204 46.395 15.644 46.667 15.164C46.939 14.684 47.311 14.312 47.783 14.048C48.263 13.776 48.803 13.64 49.403 13.64C49.955 13.64 50.447 13.764 50.879 14.012C51.319 14.26 51.667 14.624 51.923 15.104C52.187 15.576 52.319 16.156 52.319 16.844C52.319 17.524 52.191 18.104 51.935 18.584C51.679 19.064 51.331 19.432 50.891 19.688C50.459 19.936 49.963 20.06 49.403 20.06ZM49.463 19.304C49.911 19.304 50.311 19.204 50.663 19.004C51.023 18.796 51.303 18.508 51.503 18.14C51.711 17.764 51.815 17.332 51.815 16.844C51.815 16.348 51.711 15.916 51.503 15.548C51.303 15.18 51.023 14.896 50.663 14.696C50.311 14.488 49.911 14.384 49.463 14.384C49.023 14.384 48.627 14.488 48.275 14.696C47.923 14.896 47.643 15.18 47.435 15.548C47.227 15.916 47.123 16.348 47.123 16.844C47.123 17.332 47.227 17.764 47.435 18.14C47.643 18.508 47.923 18.796 48.275 19.004C48.627 19.204 49.023 19.304 49.463 19.304ZM51.839 20V18.104L51.923 16.832L51.803 15.56V11.096H52.655V20H51.839ZM58.9758 20V18.608L58.9398 18.38V16.052C58.9398 15.516 58.7878 15.104 58.4838 14.816C58.1878 14.528 57.7438 14.384 57.1518 14.384C56.7438 14.384 56.3558 14.452 55.9878 14.588C55.6198 14.724 55.3078 14.904 55.0518 15.128L54.6678 14.492C54.9878 14.22 55.3718 14.012 55.8198 13.868C56.2678 13.716 56.7398 13.64 57.2358 13.64C58.0518 13.64 58.6798 13.844 59.1198 14.252C59.5678 14.652 59.7918 15.264 59.7918 16.088V20H58.9758ZM56.8038 20.06C56.3318 20.06 55.9198 19.984 55.5678 19.832C55.2238 19.672 54.9598 19.456 54.7758 19.184C54.5918 18.904 54.4998 18.584 54.4998 18.224C54.4998 17.896 54.5758 17.6 54.7278 17.336C54.8878 17.064 55.1438 16.848 55.4958 16.688C55.8558 16.52 56.3358 16.436 56.9358 16.436H59.1078V17.072H56.9598C56.3518 17.072 55.9278 17.18 55.6878 17.396C55.4558 17.612 55.3398 17.88 55.3398 18.2C55.3398 18.56 55.4798 18.848 55.7598 19.064C56.0398 19.28 56.4318 19.388 56.9358 19.388C57.4158 19.388 57.8278 19.28 58.1718 19.064C58.5238 18.84 58.7798 18.52 58.9398 18.104L59.1318 18.692C58.9718 19.108 58.6918 19.44 58.2918 19.688C57.8998 19.936 57.4038 20.06 56.8038 20.06ZM64.098 20.06C63.506 20.06 63.05 19.9 62.73 19.58C62.41 19.26 62.25 18.808 62.25 18.224V12.308H63.102V18.176C63.102 18.544 63.194 18.828 63.378 19.028C63.57 19.228 63.842 19.328 64.194 19.328C64.57 19.328 64.882 19.22 65.13 19.004L65.43 19.616C65.262 19.768 65.058 19.88 64.818 19.952C64.586 20.024 64.346 20.06 64.098 20.06ZM61.122 14.408V13.7H65.022V14.408H61.122ZM66.981 20V13.7H67.833V20H66.981ZM67.413 12.308C67.237 12.308 67.089 12.248 66.969 12.128C66.849 12.008 66.789 11.864 66.789 11.696C66.789 11.528 66.849 11.388 66.969 11.276C67.089 11.156 67.237 11.096 67.413 11.096C67.589 11.096 67.737 11.152 67.857 11.264C67.977 11.376 68.037 11.516 68.037 11.684C68.037 11.86 67.977 12.008 67.857 12.128C67.745 12.248 67.597 12.308 67.413 12.308ZM72.7716 20.06C72.1636 20.06 71.6156 19.924 71.1276 19.652C70.6476 19.372 70.2676 18.992 69.9876 18.512C69.7076 18.024 69.5676 17.468 69.5676 16.844C69.5676 16.212 69.7076 15.656 69.9876 15.176C70.2676 14.696 70.6476 14.32 71.1276 14.048C71.6076 13.776 72.1556 13.64 72.7716 13.64C73.3956 13.64 73.9476 13.776 74.4276 14.048C74.9156 14.32 75.2956 14.696 75.5676 15.176C75.8476 15.656 75.9876 16.212 75.9876 16.844C75.9876 17.468 75.8476 18.024 75.5676 18.512C75.2956 18.992 74.9156 19.372 74.4276 19.652C73.9396 19.924 73.3876 20.06 72.7716 20.06ZM72.7716 19.304C73.2276 19.304 73.6316 19.204 73.9836 19.004C74.3356 18.796 74.6116 18.508 74.8116 18.14C75.0196 17.764 75.1236 17.332 75.1236 16.844C75.1236 16.348 75.0196 15.916 74.8116 15.548C74.6116 15.18 74.3356 14.896 73.9836 14.696C73.6316 14.488 73.2316 14.384 72.7836 14.384C72.3356 14.384 71.9356 14.488 71.5836 14.696C71.2316 14.896 70.9516 15.18 70.7436 15.548C70.5356 15.916 70.4316 16.348 70.4316 16.844C70.4316 17.332 70.5356 17.764 70.7436 18.14C70.9516 18.508 71.2316 18.796 71.5836 19.004C71.9356 19.204 72.3316 19.304 72.7716 19.304ZM80.9431 13.64C81.4551 13.64 81.9031 13.74 82.2871 13.94C82.6791 14.132 82.9831 14.428 83.1991 14.828C83.4231 15.228 83.5351 15.732 83.5351 16.34V20H82.6831V16.424C82.6831 15.76 82.5151 15.26 82.1791 14.924C81.8511 14.58 81.3871 14.408 80.7871 14.408C80.3391 14.408 79.9471 14.5 79.6111 14.684C79.2831 14.86 79.0271 15.12 78.8431 15.464C78.6671 15.8 78.5791 16.208 78.5791 16.688V20H77.7271V13.7H78.5431V15.428L78.4111 15.104C78.6111 14.648 78.9311 14.292 79.3711 14.036C79.8111 13.772 80.3351 13.64 80.9431 13.64ZM90.7891 20V12.368H87.8371V11.6H94.6291V12.368H91.6771V20H90.7891ZM99.0837 13.64C99.5957 13.64 100.044 13.74 100.428 13.94C100.82 14.132 101.124 14.428 101.34 14.828C101.564 15.228 101.676 15.732 101.676 16.34V20H100.824V16.424C100.824 15.76 100.656 15.26 100.32 14.924C99.9917 14.58 99.5277 14.408 98.9277 14.408C98.4797 14.408 98.0877 14.5 97.7517 14.684C97.4237 14.86 97.1677 15.12 96.9837 15.464C96.8077 15.8 96.7197 16.208 96.7197 16.688V20H95.8677V11.096H96.7197V15.428L96.5517 15.104C96.7517 14.648 97.0717 14.292 97.5117 14.036C97.9517 13.772 98.4757 13.64 99.0837 13.64ZM103.977 20V13.7H104.793V15.416L104.709 15.116C104.885 14.636 105.181 14.272 105.597 14.024C106.013 13.768 106.529 13.64 107.145 13.64V14.468C107.113 14.468 107.081 14.468 107.049 14.468C107.017 14.46 106.985 14.456 106.953 14.456C106.289 14.456 105.769 14.66 105.393 15.068C105.017 15.468 104.829 16.04 104.829 16.784V20H103.977ZM111.317 20.06C110.661 20.06 110.085 19.924 109.589 19.652C109.093 19.372 108.705 18.992 108.425 18.512C108.145 18.024 108.005 17.468 108.005 16.844C108.005 16.22 108.137 15.668 108.401 15.188C108.673 14.708 109.041 14.332 109.505 14.06C109.977 13.78 110.505 13.64 111.089 13.64C111.681 13.64 112.205 13.776 112.661 14.048C113.125 14.312 113.489 14.688 113.753 15.176C114.017 15.656 114.149 16.212 114.149 16.844C114.149 16.884 114.145 16.928 114.137 16.976C114.137 17.016 114.137 17.06 114.137 17.108H108.653V16.472H113.681L113.345 16.724C113.345 16.268 113.245 15.864 113.045 15.512C112.853 15.152 112.589 14.872 112.253 14.672C111.917 14.472 111.529 14.372 111.089 14.372C110.657 14.372 110.269 14.472 109.925 14.672C109.581 14.872 109.313 15.152 109.121 15.512C108.929 15.872 108.833 16.284 108.833 16.748V16.88C108.833 17.36 108.937 17.784 109.145 18.152C109.361 18.512 109.657 18.796 110.033 19.004C110.417 19.204 110.853 19.304 111.341 19.304C111.725 19.304 112.081 19.236 112.409 19.1C112.745 18.964 113.033 18.756 113.273 18.476L113.753 19.028C113.473 19.364 113.121 19.62 112.697 19.796C112.281 19.972 111.821 20.06 111.317 20.06ZM117.575 20.06C117.055 20.06 116.563 19.988 116.099 19.844C115.635 19.692 115.271 19.504 115.007 19.28L115.391 18.608C115.647 18.8 115.975 18.968 116.375 19.112C116.775 19.248 117.195 19.316 117.635 19.316C118.235 19.316 118.667 19.224 118.931 19.04C119.195 18.848 119.327 18.596 119.327 18.284C119.327 18.052 119.251 17.872 119.099 17.744C118.955 17.608 118.763 17.508 118.523 17.444C118.283 17.372 118.015 17.312 117.719 17.264C117.423 17.216 117.127 17.16 116.831 17.096C116.543 17.032 116.279 16.94 116.039 16.82C115.799 16.692 115.603 16.52 115.451 16.304C115.307 16.088 115.235 15.8 115.235 15.44C115.235 15.096 115.331 14.788 115.523 14.516C115.715 14.244 115.995 14.032 116.363 13.88C116.739 13.72 117.195 13.64 117.731 13.64C118.139 13.64 118.547 13.696 118.955 13.808C119.363 13.912 119.699 14.052 119.963 14.228L119.591 14.912C119.311 14.72 119.011 14.584 118.691 14.504C118.371 14.416 118.051 14.372 117.731 14.372C117.163 14.372 116.743 14.472 116.471 14.672C116.207 14.864 116.075 15.112 116.075 15.416C116.075 15.656 116.147 15.844 116.291 15.98C116.443 16.116 116.639 16.224 116.879 16.304C117.127 16.376 117.395 16.436 117.683 16.484C117.979 16.532 118.271 16.592 118.559 16.664C118.855 16.728 119.123 16.82 119.363 16.94C119.611 17.052 119.807 17.216 119.951 17.432C120.103 17.64 120.179 17.916 120.179 18.26C120.179 18.628 120.075 18.948 119.867 19.22C119.667 19.484 119.371 19.692 118.979 19.844C118.595 19.988 118.127 20.06 117.575 20.06ZM124.959 13.64C125.471 13.64 125.919 13.74 126.303 13.94C126.695 14.132 126.999 14.428 127.215 14.828C127.439 15.228 127.551 15.732 127.551 16.34V20H126.699V16.424C126.699 15.76 126.531 15.26 126.195 14.924C125.867 14.58 125.403 14.408 124.803 14.408C124.355 14.408 123.963 14.5 123.627 14.684C123.299 14.86 123.043 15.12 122.859 15.464C122.683 15.8 122.595 16.208 122.595 16.688V20H121.743V11.096H122.595V15.428L122.427 15.104C122.627 14.648 122.947 14.292 123.387 14.036C123.827 13.772 124.351 13.64 124.959 13.64ZM132.42 20.06C131.812 20.06 131.264 19.924 130.776 19.652C130.296 19.372 129.916 18.992 129.636 18.512C129.356 18.024 129.216 17.468 129.216 16.844C129.216 16.212 129.356 15.656 129.636 15.176C129.916 14.696 130.296 14.32 130.776 14.048C131.256 13.776 131.804 13.64 132.42 13.64C133.044 13.64 133.596 13.776 134.076 14.048C134.564 14.32 134.944 14.696 135.216 15.176C135.496 15.656 135.636 16.212 135.636 16.844C135.636 17.468 135.496 18.024 135.216 18.512C134.944 18.992 134.564 19.372 134.076 19.652C133.588 19.924 133.036 20.06 132.42 20.06ZM132.42 19.304C132.876 19.304 133.28 19.204 133.632 19.004C133.984 18.796 134.26 18.508 134.46 18.14C134.668 17.764 134.772 17.332 134.772 16.844C134.772 16.348 134.668 15.916 134.46 15.548C134.26 15.18 133.984 14.896 133.632 14.696C133.28 14.488 132.88 14.384 132.432 14.384C131.984 14.384 131.584 14.488 131.232 14.696C130.88 14.896 130.6 15.18 130.392 15.548C130.184 15.916 130.08 16.348 130.08 16.844C130.08 17.332 130.184 17.764 130.392 18.14C130.6 18.508 130.88 18.796 131.232 19.004C131.584 19.204 131.98 19.304 132.42 19.304ZM137.376 20V11.096H138.228V20H137.376ZM143.106 20.06C142.506 20.06 141.966 19.924 141.486 19.652C141.014 19.38 140.642 19.004 140.37 18.524C140.098 18.036 139.962 17.476 139.962 16.844C139.962 16.204 140.098 15.644 140.37 15.164C140.642 14.684 141.014 14.312 141.486 14.048C141.966 13.776 142.506 13.64 143.106 13.64C143.658 13.64 144.15 13.764 144.582 14.012C145.022 14.26 145.37 14.624 145.626 15.104C145.89 15.576 146.022 16.156 146.022 16.844C146.022 17.524 145.894 18.104 145.638 18.584C145.382 19.064 145.034 19.432 144.594 19.688C144.162 19.936 143.666 20.06 143.106 20.06ZM143.166 19.304C143.614 19.304 144.014 19.204 144.366 19.004C144.726 18.796 145.006 18.508 145.206 18.14C145.414 17.764 145.518 17.332 145.518 16.844C145.518 16.348 145.414 15.916 145.206 15.548C145.006 15.18 144.726 14.896 144.366 14.696C144.014 14.488 143.614 14.384 143.166 14.384C142.726 14.384 142.33 14.488 141.978 14.696C141.626 14.896 141.346 15.18 141.138 15.548C140.93 15.916 140.826 16.348 140.826 16.844C140.826 17.332 140.93 17.764 141.138 18.14C141.346 18.508 141.626 18.796 141.978 19.004C142.33 19.204 142.726 19.304 143.166 19.304ZM145.542 20V18.104L145.626 16.832L145.506 15.56V11.096H146.358V20H145.542ZM152.784 20L156.408 11.984L156.672 12.368H151.476L151.92 11.948V13.94H151.068V11.6H157.236V12.212L153.72 20H152.784ZM161.488 20.072C160.84 20.072 160.264 19.904 159.76 19.568C159.256 19.224 158.86 18.736 158.572 18.104C158.284 17.464 158.14 16.696 158.14 15.8C158.14 14.904 158.284 14.14 158.572 13.508C158.86 12.868 159.256 12.38 159.76 12.044C160.264 11.7 160.84 11.528 161.488 11.528C162.136 11.528 162.712 11.7 163.216 12.044C163.72 12.38 164.116 12.868 164.404 13.508C164.7 14.14 164.848 14.904 164.848 15.8C164.848 16.696 164.7 17.464 164.404 18.104C164.116 18.736 163.72 19.224 163.216 19.568C162.712 19.904 162.136 20.072 161.488 20.072ZM161.488 19.28C161.984 19.28 162.416 19.148 162.784 18.884C163.152 18.612 163.44 18.22 163.648 17.708C163.856 17.188 163.96 16.552 163.96 15.8C163.96 15.048 163.856 14.416 163.648 13.904C163.44 13.384 163.152 12.992 162.784 12.728C162.416 12.456 161.984 12.32 161.488 12.32C161.008 12.32 160.58 12.456 160.204 12.728C159.828 12.992 159.536 13.384 159.328 13.904C159.12 14.416 159.016 15.048 159.016 15.8C159.016 16.552 159.12 17.188 159.328 17.708C159.536 18.22 159.828 18.612 160.204 18.884C160.58 19.148 161.008 19.28 161.488 19.28ZM167.213 20L172.949 11.6H173.657L167.921 20H167.213ZM167.861 16.1C167.485 16.1 167.153 16.008 166.865 15.824C166.577 15.632 166.353 15.364 166.193 15.02C166.041 14.676 165.965 14.276 165.965 13.82C165.965 13.364 166.041 12.964 166.193 12.62C166.353 12.276 166.577 12.012 166.865 11.828C167.153 11.636 167.485 11.54 167.861 11.54C168.237 11.54 168.565 11.636 168.845 11.828C169.133 12.012 169.357 12.276 169.517 12.62C169.677 12.964 169.757 13.364 169.757 13.82C169.757 14.276 169.677 14.676 169.517 15.02C169.357 15.364 169.133 15.632 168.845 15.824C168.565 16.008 168.237 16.1 167.861 16.1ZM167.861 15.56C168.253 15.56 168.565 15.408 168.797 15.104C169.037 14.792 169.157 14.364 169.157 13.82C169.157 13.276 169.037 12.852 168.797 12.548C168.565 12.236 168.253 12.08 167.861 12.08C167.461 12.08 167.145 12.236 166.913 12.548C166.681 12.852 166.565 13.276 166.565 13.82C166.565 14.364 166.681 14.792 166.913 15.104C167.145 15.408 167.461 15.56 167.861 15.56ZM173.009 20.06C172.641 20.06 172.313 19.968 172.025 19.784C171.737 19.592 171.513 19.324 171.353 18.98C171.193 18.636 171.113 18.236 171.113 17.78C171.113 17.324 171.193 16.924 171.353 16.58C171.513 16.236 171.737 15.972 172.025 15.788C172.313 15.596 172.641 15.5 173.009 15.5C173.393 15.5 173.725 15.596 174.005 15.788C174.293 15.972 174.513 16.236 174.665 16.58C174.825 16.924 174.905 17.324 174.905 17.78C174.905 18.236 174.825 18.636 174.665 18.98C174.513 19.324 174.293 19.592 174.005 19.784C173.725 19.968 173.393 20.06 173.009 20.06ZM173.009 19.52C173.401 19.52 173.713 19.368 173.945 19.064C174.185 18.752 174.305 18.324 174.305 17.78C174.305 17.236 174.185 16.812 173.945 16.508C173.713 16.196 173.401 16.04 173.009 16.04C172.617 16.04 172.301 16.196 172.061 16.508C171.829 16.812 171.713 17.236 171.713 17.78C171.713 18.324 171.829 18.752 172.061 19.064C172.301 19.368 172.617 19.52 173.009 19.52Z" fill="#746FFF"/>
<path d="M73 35V74" stroke="#746FFF" stroke-linecap="round" stroke-dasharray="2 2"/>
</svg>
