<svg width="113" height="52" viewBox="0 0 113 52" fill="none" xmlns="http://www.w3.org/2000/svg">
<rect y="21" width="113" height="31" rx="15.5" fill="#9292AA" fill-opacity="0.1"/>
<path d="M17.8602 41V32.6H18.5922L22.4322 39.152H22.0482L25.8522 32.6H26.5842V41H25.7322V33.932H25.9362L22.4322 39.932H22.0122L18.4842 33.932H18.7122V41H17.8602ZM27.9771 41L31.8171 32.6H32.6931L36.5331 41H35.5971L32.0691 33.116H32.4291L28.9011 41H27.9771ZM29.4891 38.756L29.7531 38.036H34.6371L34.9011 38.756H29.4891ZM36.372 41L39.816 36.344V37.028L36.576 32.6H37.596L40.32 36.296L39.924 36.308L42.648 32.6H43.608L40.404 36.968V36.344L43.836 41H42.804L39.9 37.052H40.272L37.392 41H36.372ZM48.5516 41V32.6H49.4396V40.232H54.1436V41H48.5516ZM56.4648 41V33.368H53.5128V32.6H60.3048V33.368H57.3528V41H56.4648ZM64.0529 41L60.3329 32.6H61.2929L64.7729 40.508H64.2449L67.7489 32.6H68.6489L64.9289 41H64.0529ZM75.0924 41.072C74.4924 41.072 73.9204 40.976 73.3764 40.784C72.8324 40.584 72.4004 40.32 72.0804 39.992L72.5004 39.308C72.7644 39.588 73.1244 39.82 73.5804 40.004C74.0444 40.188 74.5444 40.28 75.0804 40.28C75.7924 40.28 76.3324 40.124 76.7004 39.812C77.0764 39.492 77.2644 39.076 77.2644 38.564C77.2644 38.204 77.1764 37.896 77.0004 37.64C76.8324 37.376 76.5444 37.172 76.1364 37.028C75.7284 36.884 75.1684 36.812 74.4564 36.812H72.6684L73.1004 32.6H77.6964V33.368H73.4484L73.8924 32.948L73.5204 36.476L73.0764 36.044H74.6484C75.4964 36.044 76.1764 36.148 76.6884 36.356C77.2004 36.564 77.5684 36.856 77.7924 37.232C78.0244 37.6 78.1404 38.032 78.1404 38.528C78.1404 39 78.0284 39.432 77.8044 39.824C77.5804 40.208 77.2444 40.512 76.7964 40.736C76.3484 40.96 75.7804 41.072 75.0924 41.072ZM82.5853 41.072C81.9373 41.072 81.3613 40.904 80.8573 40.568C80.3533 40.224 79.9573 39.736 79.6693 39.104C79.3813 38.464 79.2373 37.696 79.2373 36.8C79.2373 35.904 79.3813 35.14 79.6693 34.508C79.9573 33.868 80.3533 33.38 80.8573 33.044C81.3613 32.7 81.9373 32.528 82.5853 32.528C83.2333 32.528 83.8093 32.7 84.3133 33.044C84.8173 33.38 85.2133 33.868 85.5013 34.508C85.7973 35.14 85.9453 35.904 85.9453 36.8C85.9453 37.696 85.7973 38.464 85.5013 39.104C85.2133 39.736 84.8173 40.224 84.3133 40.568C83.8093 40.904 83.2333 41.072 82.5853 41.072ZM82.5853 40.28C83.0813 40.28 83.5133 40.148 83.8813 39.884C84.2493 39.612 84.5373 39.22 84.7453 38.708C84.9533 38.188 85.0573 37.552 85.0573 36.8C85.0573 36.048 84.9533 35.416 84.7453 34.904C84.5373 34.384 84.2493 33.992 83.8813 33.728C83.5133 33.456 83.0813 33.32 82.5853 33.32C82.1053 33.32 81.6773 33.456 81.3013 33.728C80.9253 33.992 80.6333 34.384 80.4253 34.904C80.2173 35.416 80.1133 36.048 80.1133 36.8C80.1133 37.552 80.2173 38.188 80.4253 38.708C80.6333 39.22 80.9253 39.612 81.3013 39.884C81.6773 40.148 82.1053 40.28 82.5853 40.28ZM88.3106 41L94.0466 32.6H94.7546L89.0186 41H88.3106ZM88.9586 37.1C88.5826 37.1 88.2506 37.008 87.9626 36.824C87.6746 36.632 87.4506 36.364 87.2906 36.02C87.1386 35.676 87.0626 35.276 87.0626 34.82C87.0626 34.364 87.1386 33.964 87.2906 33.62C87.4506 33.276 87.6746 33.012 87.9626 32.828C88.2506 32.636 88.5826 32.54 88.9586 32.54C89.3346 32.54 89.6626 32.636 89.9426 32.828C90.2306 33.012 90.4546 33.276 90.6146 33.62C90.7746 33.964 90.8546 34.364 90.8546 34.82C90.8546 35.276 90.7746 35.676 90.6146 36.02C90.4546 36.364 90.2306 36.632 89.9426 36.824C89.6626 37.008 89.3346 37.1 88.9586 37.1ZM88.9586 36.56C89.3506 36.56 89.6626 36.408 89.8946 36.104C90.1346 35.792 90.2546 35.364 90.2546 34.82C90.2546 34.276 90.1346 33.852 89.8946 33.548C89.6626 33.236 89.3506 33.08 88.9586 33.08C88.5586 33.08 88.2426 33.236 88.0106 33.548C87.7786 33.852 87.6626 34.276 87.6626 34.82C87.6626 35.364 87.7786 35.792 88.0106 36.104C88.2426 36.408 88.5586 36.56 88.9586 36.56ZM94.1066 41.06C93.7386 41.06 93.4106 40.968 93.1226 40.784C92.8346 40.592 92.6106 40.324 92.4506 39.98C92.2906 39.636 92.2106 39.236 92.2106 38.78C92.2106 38.324 92.2906 37.924 92.4506 37.58C92.6106 37.236 92.8346 36.972 93.1226 36.788C93.4106 36.596 93.7386 36.5 94.1066 36.5C94.4906 36.5 94.8226 36.596 95.1026 36.788C95.3906 36.972 95.6106 37.236 95.7626 37.58C95.9226 37.924 96.0026 38.324 96.0026 38.78C96.0026 39.236 95.9226 39.636 95.7626 39.98C95.6106 40.324 95.3906 40.592 95.1026 40.784C94.8226 40.968 94.4906 41.06 94.1066 41.06ZM94.1066 40.52C94.4986 40.52 94.8106 40.368 95.0426 40.064C95.2826 39.752 95.4026 39.324 95.4026 38.78C95.4026 38.236 95.2826 37.812 95.0426 37.508C94.8106 37.196 94.4986 37.04 94.1066 37.04C93.7146 37.04 93.3986 37.196 93.1586 37.508C92.9266 37.812 92.8106 38.236 92.8106 38.78C92.8106 39.324 92.9266 39.752 93.1586 40.064C93.3986 40.368 93.7146 40.52 94.1066 40.52Z" fill="#9292AA"/>
<path d="M81 1L81 18" stroke="#9292AA" stroke-linecap="round" stroke-dasharray="2 2"/>
</svg>
