<svg width="16" height="16" viewBox="0 0 16 16" fill="none" xmlns="http://www.w3.org/2000/svg">
<path d="M14.3434 1.82611C13.9768 1.40569 13.5417 1.07219 13.0627 0.844652C12.5837 0.617114 12.0704 0.5 11.5519 0.5C11.0335 0.5 10.5201 0.617114 10.0411 0.844652C9.56215 1.07219 9.12698 1.40569 8.76046 1.82611L7.99981 2.69821L7.23916 1.82611C6.49882 0.977297 5.4947 0.50044 4.44771 0.50044C3.40071 0.50044 2.39659 0.977297 1.65626 1.82611C0.915918 2.67492 0.5 3.82616 0.5 5.02656C0.5 6.22696 0.915918 7.37819 1.65626 8.227L2.41691 9.0991L7.99981 15.5L13.5827 9.0991L14.3434 8.227C14.71 7.80679 15.0009 7.30785 15.1994 6.75871C15.3979 6.20957 15.5 5.62097 15.5 5.02656C15.5 4.43214 15.3979 3.84355 15.1994 3.2944C15.0009 2.74526 14.71 2.24633 14.3434 1.82611Z" fill="#FF6262"/>
</svg>
