<svg width="16" height="17" viewBox="0 0 16 17" fill="none" xmlns="http://www.w3.org/2000/svg">
<g clip-path="url(#clip0_464_2876)">
<path d="M14.6668 7.88625V8.49958C14.666 9.9372 14.2005 11.336 13.3397 12.4875C12.4789 13.6389 11.269 14.4812 9.8904 14.8889C8.51178 15.2965 7.03834 15.2475 5.68981 14.7493C4.34128 14.2511 3.18993 13.3303 2.40747 12.1243C1.62501 10.9183 1.25336 9.49163 1.34795 8.05713C1.44254 6.62263 1.9983 5.25714 2.93235 4.1643C3.8664 3.07146 5.12869 2.30984 6.53096 1.99301C7.93322 1.67619 9.40034 1.82114 10.7135 2.40625" stroke="#69CAA1" stroke-width="2" stroke-linecap="round" stroke-linejoin="round"/>
<path d="M14.6667 3.16699L8 9.84033L6 7.84033" stroke="#69CAA1" stroke-width="2" stroke-linecap="round" stroke-linejoin="round"/>
</g>
<defs>
<clipPath id="clip0_464_2876">
<rect width="16" height="16" fill="white" transform="translate(0 0.5)"/>
</clipPath>
</defs>
</svg>
