<svg width="50" height="50" viewBox="0 0 50 50" fill="none" xmlns="http://www.w3.org/2000/svg">
<path d="M43.7358 0H6.26423C2.80459 0 0 2.80459 0 6.26423V43.7358C0 47.1954 2.80459 50 6.26423 50H43.7358C47.1954 50 50 47.1954 50 43.7358V6.26423C50 2.80459 47.1954 0 43.7358 0Z" fill="white"/>
<path d="M8.09064 38.9342C8.28982 35.7432 10.0215 19.3488 24.615 8.00738C24.9565 7.73909 25.4565 7.97892 25.4565 8.41388V38.9667C25.4565 39.2553 25.2248 39.4871 24.9362 39.4871H8.61096C8.31015 39.4871 8.07438 39.235 8.09064 38.9383V38.9342Z" fill="#443DF6"/>
<path d="M39.3465 39.1081C39.2083 36.9293 38.0294 25.7504 28.0741 18.0146C27.8384 17.8317 27.501 17.9943 27.501 18.291V39.1284C27.501 39.3236 27.6595 39.4821 27.8546 39.4821H38.9928C39.1961 39.4821 39.3587 39.3114 39.3465 39.1081Z" fill="#443DF6"/>
</svg>
