<svg width="20" height="20" viewBox="0 0 20 20" fill="none" xmlns="http://www.w3.org/2000/svg">
<path d="M16.4752 6.025L16.4835 6.01667L13.3835 2.91667L12.5002 3.8L14.2585 5.55833C13.4752 5.85833 12.9168 6.60833 12.9168 7.5C12.9168 8.65 13.8502 9.58333 15.0002 9.58333C15.3002 9.58333 15.5752 9.51667 15.8335 9.40833V15.4167C15.8335 15.875 15.4585 16.25 15.0002 16.25C14.5418 16.25 14.1668 15.875 14.1668 15.4167V11.6667C14.1668 10.75 13.4168 10 12.5002 10H11.6668V4.16667C11.6668 3.25 10.9168 2.5 10.0002 2.5H5.00016C4.0835 2.5 3.3335 3.25 3.3335 4.16667V17.5H11.6668V11.25H12.9168V15.4167C12.9168 16.5667 13.8502 17.5 15.0002 17.5C16.1502 17.5 17.0835 16.5667 17.0835 15.4167V7.5C17.0835 6.925 16.8502 6.4 16.4752 6.025ZM10.0002 8.33333H5.00016V4.16667H10.0002V8.33333ZM15.0002 8.33333C14.5418 8.33333 14.1668 7.95833 14.1668 7.5C14.1668 7.04167 14.5418 6.66667 15.0002 6.66667C15.4585 6.66667 15.8335 7.04167 15.8335 7.5C15.8335 7.95833 15.4585 8.33333 15.0002 8.33333Z" fill="#443DF6"/>
</svg>
