<svg width="16" height="16" viewBox="0 0 16 16" fill="none" xmlns="http://www.w3.org/2000/svg">
<path d="M8 0C12.4187 0 16 3.58204 16 8C16 12.4187 12.4187 16 8 16C3.58204 16 0 12.4183 0 8C0 3.58204 3.58204 0 8 0Z" fill="#F5AC37"/>
<path d="M8.29464 8.56491H11.3345C11.3993 8.56491 11.4299 8.56491 11.4346 8.47995C11.4594 8.17071 11.4594 7.85966 11.4346 7.55006C11.4346 7.48994 11.4047 7.4651 11.3395 7.4651H5.28969C5.2148 7.4651 5.19464 7.48994 5.19464 7.56014V8.45007C5.19464 8.56491 5.19464 8.56491 5.31453 8.56491H8.29464ZM11.0951 6.42505C11.1037 6.40237 11.1037 6.37753 11.0951 6.35521C11.0443 6.24469 10.9842 6.13921 10.9144 6.04021C10.8093 5.871 10.6854 5.71512 10.5443 5.57508C10.4777 5.49048 10.4007 5.41452 10.3143 5.35008C9.88153 4.9818 9.36709 4.72115 8.81412 4.59011C8.53512 4.52747 8.24999 4.49759 7.96415 4.50011H5.27924C5.20436 4.50011 5.19428 4.52999 5.19428 4.59515V6.36997C5.19428 6.44485 5.19428 6.46501 5.28932 6.46501H11.0591C11.0591 6.46501 11.1091 6.45493 11.1192 6.42505H11.0947H11.0951ZM11.0951 9.60496C11.0101 9.5956 10.9245 9.5956 10.8395 9.60496H5.29473C5.21984 9.60496 5.19464 9.60496 5.19464 9.70504V11.4403C5.19464 11.5202 5.19464 11.5403 5.29473 11.5403H7.85471C7.97711 11.5497 8.09951 11.5411 8.21939 11.5155C8.59092 11.4889 8.95632 11.4082 9.30481 11.2754C9.43153 11.2315 9.55393 11.1742 9.66949 11.1055H9.70441C10.3045 10.7933 10.792 10.303 11.0994 9.70108C11.0994 9.70108 11.1343 9.62548 11.0951 9.60568V9.60496ZM4.18987 12.44V12.4101V11.2451V10.8502V9.67516C4.18987 9.61 4.18987 9.60028 4.10995 9.60028H3.0249C2.96478 9.60028 2.93994 9.60028 2.93994 9.52036V8.57031H4.09987C4.16467 8.57031 4.18987 8.57031 4.18987 8.48535V7.54538C4.18987 7.48526 4.18987 7.4705 4.10995 7.4705H3.0249C2.96478 7.4705 2.93994 7.4705 2.93994 7.39058V6.51073C2.93994 6.45565 2.93994 6.44089 3.01986 6.44089H4.09483C4.16971 6.44089 4.18987 6.44089 4.18987 6.34585V3.65086C4.18987 3.57094 4.18987 3.55078 4.28995 3.55078H8.03975C8.31192 3.56158 8.58228 3.59146 8.84976 3.64078C9.40093 3.74266 9.93049 3.93959 10.4147 4.22075C10.7358 4.40975 11.0314 4.63799 11.2945 4.90079C11.4925 5.10636 11.6711 5.32884 11.8295 5.56572C11.9868 5.80584 12.1175 6.06253 12.2201 6.33073C12.2327 6.40057 12.2997 6.44773 12.3695 6.43585H13.2645C13.3793 6.43585 13.3793 6.43585 13.3844 6.54601V7.3661C13.3844 7.44602 13.3545 7.46618 13.2742 7.46618H12.5841C12.5142 7.46618 12.4941 7.46618 12.4991 7.55618C12.5265 7.86074 12.5265 8.16639 12.4991 8.47095C12.4991 8.55591 12.4991 8.56599 12.5945 8.56599H13.384C13.4189 8.61099 13.384 8.65599 13.384 8.70135C13.389 8.75931 13.389 8.81799 13.384 8.87596V9.48112C13.384 9.56608 13.3592 9.59128 13.2839 9.59128H12.3389C12.273 9.57868 12.209 9.6208 12.1938 9.68632C11.9688 10.2713 11.6088 10.7959 11.1437 11.2163C10.9738 11.3693 10.7952 11.5133 10.6087 11.6462C10.4086 11.7614 10.2138 11.8813 10.0086 11.9763C9.63097 12.1462 9.23496 12.2715 8.82852 12.3511C8.4426 12.4202 8.05127 12.4515 7.65851 12.4461H4.18843V12.4411L4.18987 12.44Z" fill="#FEFEFD"/>
</svg>
